<svg width="180" height="43" viewBox="0 0 180 43" fill="none" xmlns="http://www.w3.org/2000/svg">
<path fill-rule="evenodd" clip-rule="evenodd" d="M40.5974 26.8765C40.8712 27.3559 41.1851 27.8012 41.5391 28.2126C42.3373 29.14 43.3208 29.8624 44.4897 30.3797C45.6586 30.8971 47.0192 31.158 48.5715 31.1624C49.0643 31.1638 49.5756 31.1331 50.1056 31.0704C50.6355 31.0077 51.1347 30.932 51.6031 30.8433C52.0715 30.7547 52.4907 30.6531 52.8606 30.5385C53.2305 30.4239 53.5142 30.3027 53.7117 30.1747L53.2398 27.1665C52.8204 27.3709 52.2408 27.562 51.5011 27.7398C50.7614 27.9176 49.9357 28.0052 49.024 28.0026C47.8906 27.9994 46.9302 27.8232 46.1427 27.474C45.3552 27.1248 44.7098 26.6282 44.2065 25.9843C43.7033 25.3404 43.3359 24.5684 43.1044 23.6682C42.8729 22.768 42.7587 21.7783 42.7618 20.6989C42.7686 18.2831 43.2851 16.4471 44.3113 15.1907C45.3374 13.9344 46.8114 13.309 48.7333 13.3144C49.4971 13.3166 50.2176 13.3958 50.8947 13.5519C51.5719 13.708 52.1688 13.9153 52.6855 14.1738L53.4703 11.1306C52.6828 10.7943 51.8581 10.5478 50.9961 10.3911C50.1342 10.2344 49.272 10.1549 48.4097 10.1524C47.0052 10.1484 45.7293 10.4082 44.5821 10.9318C43.4349 11.4553 42.4657 12.185 41.6746 13.1208C41.2836 13.5832 40.9362 14.0881 40.6323 14.6354L40.5974 26.8765ZM64.3859 19.7197C65.1234 20.3129 65.9036 21.0476 66.7265 21.9237C67.5495 22.7998 68.3599 23.7466 69.1578 24.764C69.9557 25.7814 70.7104 26.8116 71.4219 27.8545C72.1335 28.8973 72.7345 29.8692 73.2247 30.7701L69.1961 30.7586C68.6813 29.8576 68.0864 28.9372 67.4115 27.9972C66.7366 27.0572 66.0307 26.1558 65.294 25.2927C64.5573 24.4297 63.808 23.6373 63.0462 22.9155C62.2844 22.1937 61.5593 21.5877 60.8708 21.0975L60.8434 30.7348L57.4061 30.725L57.4896 1.42757L60.9287 0.820596L60.8765 19.0929C61.4697 18.4778 62.1245 17.7986 62.8412 17.0554C63.5579 16.3122 64.2623 15.556 64.9543 14.787C65.6464 14.018 66.3015 13.281 66.9195 12.576C67.5375 11.871 68.069 11.2493 68.5141 10.7109L72.5426 10.7224C71.9741 11.3633 71.3561 12.0682 70.6886 12.8373C70.0212 13.6064 69.3291 14.3819 68.6123 15.1637C67.8955 15.9455 67.1726 16.7272 66.4435 17.509C65.7144 18.2907 65.0285 19.0276 64.3859 19.7197ZM99.6885 4.59333L99.6708 10.7998L106.952 10.8205L106.943 13.8274L99.6622 13.8066L99.6358 23.0584C99.633 24.0607 99.7045 24.8897 99.8505 25.5454C99.9965 26.2012 100.217 26.7158 100.511 27.0893C100.806 27.4628 101.175 27.7273 101.618 27.8827C102.061 28.0382 102.578 28.1168 103.17 28.1185C104.204 28.1214 105.036 28.0017 105.665 27.7593C106.294 27.517 106.732 27.3448 106.979 27.2426L107.636 30.2128C107.29 30.3918 106.686 30.6149 105.823 30.8823C104.96 31.1497 103.974 31.2818 102.865 31.2786C101.559 31.2749 100.481 31.0984 99.6323 30.749C98.7833 30.3996 98.1011 29.8773 97.5856 29.1819C97.0701 28.4866 96.7091 27.631 96.5026 26.6153C96.2961 25.5996 96.1947 24.4235 96.1985 23.0871L96.2495 5.20031L99.6885 4.59333ZM78.3591 18.8344L87.8947 18.8616C87.9239 17.2425 87.5396 15.9115 86.7418 14.8684C85.944 13.8253 84.8428 13.3017 83.4384 13.2977C82.6499 13.2955 81.9534 13.4541 81.3488 13.7736C80.7442 14.0932 80.2318 14.5093 79.8115 15.0221C79.3911 15.5349 79.0629 16.125 78.8269 16.7926C78.591 17.4601 78.435 18.1407 78.3591 18.8344ZM8.05912 6.87631C6.53146 6.87196 5.36097 6.90718 4.54764 6.98198L4.51775 17.4674L7.21575 17.4751C8.44777 17.4786 9.5568 17.3982 10.5428 17.234C11.5289 17.0697 12.3613 16.7894 13.04 16.3929C13.7187 15.9966 14.2439 15.452 14.6155 14.7591C14.987 14.0663 15.1743 13.1802 15.1774 12.1008C15.1804 11.0728 14.9918 10.2242 14.6118 9.55493C14.2318 8.88565 13.7159 8.3509 13.0641 7.95068C12.4123 7.55046 11.6554 7.27205 10.7934 7.11546C9.93149 6.95877 9.02005 6.87905 8.05912 6.87631ZM74.6946 20.79C74.6996 19.0167 74.9504 17.469 75.447 16.1469C75.9436 14.8248 76.5996 13.728 77.4152 12.8565C78.2308 11.985 79.169 11.3324 80.2298 10.8985C81.2905 10.4646 82.3753 10.2493 83.484 10.2524C86.0712 10.2598 88.0523 11.1071 89.4273 12.7944C90.8023 14.4816 91.4849 17.0471 91.4751 20.4909C91.4746 20.645 91.4741 20.8442 91.4734 21.0884C91.4727 21.3325 91.4597 21.5573 91.4345 21.7629L78.277 21.7253C78.4189 23.8074 78.9934 25.3896 80.0005 26.4719C81.0077 27.5541 82.5831 28.0983 84.7267 28.1044C85.9341 28.1079 86.9507 28.0015 87.7768 27.7854C88.6028 27.5694 89.2256 27.3591 89.6451 27.1547L90.117 30.1629C89.6975 30.393 88.9637 30.635 87.9158 30.8891C86.8679 31.1431 85.6787 31.2682 84.3481 31.2644C82.6726 31.2596 81.2258 30.9921 80.0076 30.4618C78.7895 29.9315 77.7875 29.2026 77.0017 28.2751C76.2158 27.3477 75.6338 26.2474 75.2555 24.9742C74.8772 23.701 74.6902 22.3062 74.6946 20.79ZM7.7728 3.59879C11.3701 3.60904 14.1339 4.33009 16.0641 5.76193C17.9942 7.19377 18.9552 9.32316 18.9472 12.1501C18.9428 13.6921 18.6741 15.0084 18.1413 16.0991C17.6084 17.1898 16.842 18.0743 15.8422 18.7525C14.8424 19.4306 13.6275 19.9219 12.1975 20.2262C10.7675 20.5306 9.15317 20.6802 7.3545 20.6751L4.50862 20.6669L4.48037 30.574L0.895354 30.5638L0.970429 4.23473C1.98138 3.98061 3.10912 3.81035 4.35365 3.72396C5.59822 3.63756 6.73794 3.59584 7.7728 3.59879Z" fill="#ffffff"/>
<path fill-rule="evenodd" clip-rule="evenodd" d="M110.351 24.1516C110.408 24.4263 110.475 24.6954 110.552 24.9591C110.93 26.258 111.531 27.3841 112.353 28.3373C113.176 29.2906 114.227 30.0453 115.507 30.6015C116.787 31.1577 118.314 31.4383 120.088 31.4433C121.246 31.4466 122.305 31.3469 123.267 31.1441C124.229 30.9412 125.03 30.6993 125.671 30.4185L124.909 25.7132C124.267 25.9941 123.564 26.1977 122.8 26.324C122.036 26.4503 121.321 26.5126 120.656 26.5107C118.783 26.5053 117.473 26.0004 116.724 24.996C115.976 23.9916 115.604 22.577 115.609 20.7524C115.614 19.0305 116.018 17.6439 116.822 16.5925C117.626 15.5411 118.841 15.0177 120.467 15.0223C121.231 15.0245 121.921 15.1036 122.536 15.2595C123.152 15.4155 123.718 15.597 124.235 15.8041L125.394 11.22C124.581 10.8579 123.745 10.5792 122.883 10.384C122.021 10.1888 121.072 10.0897 120.038 10.0868C118.461 10.0823 117.055 10.361 115.822 10.9228C114.588 11.4847 113.539 12.2463 112.674 13.2076C111.809 14.1688 111.146 15.2977 110.687 16.5943C110.227 17.8908 109.995 19.2715 109.991 20.7364C109.99 20.9962 109.995 21.2528 110.014 21.5019L110.351 24.1516ZM154.473 26.8769C155.483 26.8798 156.198 26.779 156.618 26.5746C157.037 26.3702 157.248 25.9725 157.249 25.3814C157.251 24.9188 156.981 24.5133 156.44 24.1648C155.899 23.8163 155.074 23.422 153.967 22.982C153.105 22.6454 152.324 22.2962 151.623 21.9344C150.922 21.5727 150.325 21.1405 149.834 20.638C149.343 20.1354 148.962 19.5368 148.693 18.8422C148.424 18.1475 148.291 17.3119 148.294 16.3353C148.299 14.4335 148.981 12.932 150.34 11.8308C151.698 10.7296 153.56 10.1824 155.925 10.1891C157.108 10.1925 158.241 10.3049 159.324 10.5265C160.408 10.748 161.27 10.9882 161.91 11.247L160.936 15.716C160.296 15.4828 159.6 15.2753 158.849 15.0932C158.098 14.9112 157.255 14.8189 156.319 14.8162C154.594 14.8113 153.73 15.3099 153.727 16.3122C153.726 16.5435 153.763 16.7492 153.836 16.9294C153.91 17.1095 154.057 17.2833 154.278 17.451C154.499 17.6187 154.801 17.7989 155.182 17.9916C155.564 18.1843 156.05 18.3965 156.64 18.6281C157.846 19.0915 158.843 19.5479 159.63 19.9973C160.417 20.4467 161.038 20.9358 161.492 21.4648C161.947 21.9937 162.265 22.5802 162.448 23.2243C162.631 23.8683 162.722 24.615 162.719 25.4645C162.713 27.4722 161.988 28.9888 160.544 30.0143C159.1 31.0398 157.059 31.5487 154.423 31.5412C152.698 31.5363 151.263 31.378 150.118 31.0664C148.974 30.7548 148.18 30.4955 147.737 30.2886L148.674 25.6268C149.609 26.015 150.569 26.3197 151.554 26.541C152.539 26.7622 153.512 26.8742 154.473 26.8769ZM166.645 22.7483L166.693 5.70953L172.203 4.80006L172.186 10.7751L178.801 10.794L178.788 15.5742L172.172 15.5553L172.152 22.6869C172.148 23.8947 172.349 24.859 172.753 25.5798C173.158 26.3006 173.976 26.6627 175.208 26.6662C175.799 26.6679 176.409 26.6118 177.038 26.498C177.667 26.3841 178.24 26.2251 178.758 26.021L179.521 30.4949C178.855 30.7757 178.115 31.0177 177.302 31.221C176.488 31.4243 175.49 31.5242 174.307 31.5209C172.804 31.5166 171.56 31.301 170.576 30.8741C169.592 30.4473 168.805 29.854 168.216 29.0942C167.627 28.3343 167.216 27.4144 166.985 26.3344C166.754 25.2543 166.641 24.059 166.645 22.7483ZM135.882 26.9396C136.424 26.9411 136.942 26.9298 137.435 26.9055C137.927 26.8812 138.322 26.8437 138.618 26.7932L138.63 22.4371C138.408 22.3851 138.076 22.3327 137.633 22.2801C137.189 22.2274 136.783 22.2005 136.413 22.1995C135.896 22.198 135.409 22.2287 134.953 22.2917C134.497 22.3546 134.096 22.4756 133.751 22.6545C133.405 22.8334 133.134 23.0768 132.936 23.3846C132.738 23.6924 132.638 24.0776 132.637 24.5402C132.634 25.4397 132.922 26.0637 133.5 26.4123C134.078 26.7609 134.872 26.9367 135.882 26.9396ZM135.487 10.1308C137.113 10.1355 138.467 10.3321 139.551 10.7206C140.634 11.1093 141.5 11.6643 142.151 12.3857C142.802 13.1072 143.262 13.9823 143.53 15.011C143.798 16.0398 143.93 17.1838 143.927 18.4431L143.893 30.3933C143.104 30.5709 142.007 30.7798 140.601 31.02C139.196 31.2601 137.496 31.3773 135.5 31.3717C134.243 31.3681 133.104 31.2492 132.082 31.015C131.06 30.7808 130.181 30.3992 129.443 29.8702C128.705 29.3413 128.14 28.6522 127.749 27.803C127.357 26.9538 127.163 25.9124 127.166 24.6788C127.17 23.4967 127.4 22.495 127.858 21.674C128.317 20.8529 128.928 20.1993 129.694 19.7132C130.459 19.227 131.334 18.8762 132.321 18.6605C133.307 18.4449 134.33 18.3386 135.389 18.3416C136.104 18.3436 136.738 18.3776 137.292 18.4434C137.847 18.5092 138.296 18.594 138.641 18.6978L138.642 18.1582C138.645 17.1816 138.364 16.3969 137.799 15.8042C137.234 15.2115 136.249 14.9132 134.845 14.9092C133.908 14.9065 132.984 14.9746 132.072 15.1133C131.16 15.252 130.371 15.4489 129.705 15.704L129.016 11.0761C129.337 10.9743 129.737 10.8662 130.218 10.7519C130.699 10.6376 131.223 10.5363 131.79 10.448C132.357 10.3596 132.954 10.2842 133.583 10.2218C134.211 10.1593 134.846 10.129 135.487 10.1308Z" fill="#FF002B"/>
<path fill-rule="evenodd" clip-rule="evenodd" d="M26.3347 10.686C26.5038 10.6731 26.6745 10.6643 26.8479 10.6648C26.9814 10.6652 27.1132 10.6711 27.2443 10.6793C27.0908 10.7852 26.9883 10.9664 26.9877 11.1726C26.9867 11.4971 27.2384 11.7611 27.5494 11.762C27.8604 11.7628 28.1136 11.5003 28.1145 11.1758C28.1149 11.0423 28.0724 10.9189 27.9995 10.8214C28.1957 10.8612 28.3823 10.9229 28.5559 11.0084C28.5364 11.0603 28.5278 11.1176 28.5276 11.177C28.5267 11.5015 28.7784 11.7655 29.0894 11.7663C29.265 11.7668 29.4221 11.6834 29.523 11.5491C29.7216 11.6793 29.9007 11.8354 30.0569 12.0153C30.0145 12.0047 29.9699 11.9989 29.9241 11.9988C29.6131 11.9979 29.3599 12.2605 29.359 12.5849C29.358 12.9093 29.6098 13.1733 29.9208 13.1742C30.2317 13.175 30.4849 12.9125 30.4858 12.5881C30.4859 12.558 30.4838 12.5283 30.4803 12.499C30.6929 12.7818 30.8711 13.094 31.0031 13.4351C30.9074 13.3327 30.773 13.2728 30.6251 13.2724C30.3141 13.2715 30.0609 13.5341 30.0599 13.8585C30.059 14.1829 30.3108 14.4469 30.6217 14.4477C30.9207 14.4486 31.1663 14.2059 31.1844 13.8986C31.2644 14.1494 31.3237 14.4119 31.3524 14.6874C31.0913 14.7396 30.8921 14.9787 30.8913 15.2663C30.8904 15.5772 31.1216 15.8326 31.4145 15.8541L31.4103 17.3584C31.1172 17.3783 30.8846 17.6325 30.8837 17.9433C30.8828 18.2542 31.1139 18.5097 31.4069 18.5312L31.4026 20.0355C31.1095 20.0553 30.8769 20.3095 30.876 20.6203C30.8752 20.9312 31.1063 21.1867 31.3993 21.2082L31.395 22.7125C31.1019 22.7323 30.8693 22.9865 30.8684 23.2973C30.8675 23.6083 31.0987 23.8637 31.3916 23.8852L31.3839 26.6063C31.3762 29.314 29.385 31.3791 26.7889 31.3717C24.1927 31.3643 22.2134 29.2879 22.2211 26.5801L22.2289 23.8591C22.522 23.8393 22.7546 23.5851 22.7555 23.2742C22.7564 22.9634 22.5252 22.7079 22.2322 22.6864L22.2365 21.1821C22.5296 21.1623 22.7622 20.9081 22.7631 20.5972C22.764 20.2863 22.5328 20.0309 22.2398 20.0094L22.2441 18.5051C22.5372 18.4853 22.7699 18.2311 22.7708 17.9202C22.7716 17.6093 22.5404 17.3539 22.2475 17.3323L22.2518 15.828C22.5449 15.8082 22.7775 15.554 22.7784 15.2432C22.7792 14.9556 22.5814 14.7154 22.3206 14.6616C22.3387 14.4679 22.3768 14.283 22.4271 14.104C22.5155 14.2956 22.7042 14.4252 22.9219 14.4258C23.2328 14.4267 23.4861 14.1641 23.487 13.8398C23.4879 13.5154 23.2362 13.2513 22.9252 13.2504C22.8526 13.2502 22.7831 13.2644 22.7226 13.2968C22.8518 13.0014 23.0147 12.7279 23.2052 12.4783C23.2014 12.5075 23.1992 12.5372 23.1991 12.5673C23.1981 12.8917 23.4499 13.1557 23.7609 13.1566C24.0718 13.1575 24.325 12.8949 24.326 12.5706C24.3269 12.2461 24.0752 11.9821 23.7642 11.9812C23.7183 11.9811 23.6737 11.9867 23.6312 11.997C23.7661 11.8406 23.9204 11.7048 24.0892 11.5882C24.1851 11.6919 24.3205 11.7527 24.4695 11.7532C24.7805 11.7541 25.0337 11.4915 25.0346 11.1671C25.0348 11.126 25.0308 11.086 25.0265 11.0461C25.1871 10.9604 25.3605 10.8981 25.5386 10.8464C25.482 10.9397 25.448 11.0499 25.4477 11.1682C25.4468 11.4927 25.6985 11.7567 26.0095 11.7576C26.3205 11.7584 26.5736 11.4959 26.5746 11.1715C26.5751 10.9715 26.4797 10.7944 26.3347 10.686ZM23.9001 13.8409C23.901 13.5166 24.1542 13.2539 24.4652 13.2548C24.7762 13.2557 25.0279 13.5198 25.027 13.8441C25.0261 14.1685 24.7728 14.4311 24.4619 14.4302C24.1509 14.4293 23.8991 14.1653 23.9001 13.8409ZM25.44 13.8453C25.441 13.521 25.6942 13.2583 26.0052 13.2592C26.3162 13.2601 26.5679 13.5242 26.5669 13.8485C26.566 14.1729 26.3128 14.4355 26.0018 14.4346C25.6909 14.4337 25.4391 14.1697 25.44 13.8453ZM26.98 13.8497C26.981 13.5254 27.2341 13.2627 27.5451 13.2636C27.8561 13.2645 28.1078 13.5286 28.1069 13.8529C28.106 14.1773 27.8527 14.4399 27.5418 14.439C27.2308 14.4381 26.9791 14.1741 26.98 13.8497ZM28.52 13.8541C28.5209 13.5297 28.7741 13.2671 29.0851 13.268C29.3961 13.2689 29.6478 13.533 29.6469 13.8573C29.646 14.1817 29.3927 14.4442 29.0818 14.4434C28.7708 14.4425 28.519 14.1785 28.52 13.8541ZM22.3524 16.5136C22.3534 16.1892 22.6066 15.9266 22.9176 15.9274C23.2286 15.9283 23.4803 16.1924 23.4794 16.5168C23.4785 16.8411 23.2252 17.1038 22.9142 17.1029C22.6032 17.102 22.3515 16.8379 22.3524 16.5136ZM23.8924 16.5179C23.8933 16.1936 24.1466 15.931 24.4576 15.9318C24.7686 15.9327 25.0203 16.1968 25.0194 16.5212C25.0184 16.8455 24.7652 17.1082 24.4542 17.1073C24.1432 17.1064 23.8915 16.8423 23.8924 16.5179ZM25.4324 16.5223C25.4333 16.198 25.6866 15.9353 25.9976 15.9362C26.3085 15.9371 26.5602 16.2012 26.5593 16.5255C26.5584 16.8499 26.3052 17.1125 25.9942 17.1117C25.6832 17.1108 25.4315 16.8467 25.4324 16.5223ZM26.9724 16.5267C26.9733 16.2024 27.2265 15.9397 27.5375 15.9406C27.8485 15.9415 28.1002 16.2056 28.0993 16.5299C28.0984 16.8543 27.8451 17.1169 27.5341 17.116C27.2231 17.1152 26.9715 16.8511 26.9724 16.5267ZM28.5123 16.5311C28.5132 16.2068 28.7665 15.9441 29.0775 15.945C29.3885 15.9459 29.6402 16.21 29.6393 16.5343C29.6383 16.8587 29.3851 17.1213 29.0741 17.1204C28.7631 17.1196 28.5114 16.8555 28.5123 16.5311ZM30.0523 16.5355C30.0532 16.2111 30.3065 15.9485 30.6175 15.9494C30.9284 15.9503 31.1802 16.2144 31.1793 16.5387C31.1783 16.8631 30.9251 17.1257 30.6141 17.1248C30.3031 17.1239 30.0514 16.8599 30.0523 16.5355ZM22.3448 19.1906C22.3457 18.8662 22.599 18.6036 22.91 18.6045C23.2209 18.6053 23.4727 18.8694 23.4717 19.1938C23.4708 19.5181 23.2176 19.7808 22.9066 19.7799C22.5956 19.779 22.3439 19.5149 22.3448 19.1906ZM23.8848 19.195C23.8857 18.8706 24.139 18.608 24.4499 18.6089C24.7609 18.6097 25.0127 18.8738 25.0117 19.1982C25.0108 19.5225 24.7576 19.7852 24.4466 19.7843C24.1356 19.7834 23.8839 19.5193 23.8848 19.195ZM25.4248 19.1993C25.4257 18.875 25.6789 18.6124 25.9899 18.6132C26.3009 18.6141 26.5526 18.8782 26.5517 19.2026C26.5507 19.5269 26.2976 19.7896 25.9866 19.7887C25.6756 19.7878 25.4239 19.5237 25.4248 19.1993ZM26.9648 19.2037C26.9657 18.8794 27.2189 18.6167 27.5298 18.6176C27.8408 18.6185 28.0926 18.8826 28.0916 19.207C28.0907 19.5313 27.8375 19.7939 27.5265 19.7931C27.2155 19.7922 26.9638 19.5281 26.9648 19.2037ZM28.5047 19.2081C28.5056 18.8838 28.7589 18.6211 29.0698 18.622C29.3808 18.6229 29.6326 18.887 29.6316 19.2113C29.6307 19.5357 29.3775 19.7983 29.0665 19.7975C28.7555 19.7966 28.5038 19.5325 28.5047 19.2081ZM30.0447 19.2125C30.0456 18.8882 30.2988 18.6255 30.6098 18.6264C30.9208 18.6273 31.1725 18.8914 31.1716 19.2157C31.1707 19.5401 30.9175 19.8027 30.6065 19.8018C30.2955 19.801 30.0438 19.5369 30.0447 19.2125ZM22.3372 21.8676C22.3381 21.5432 22.5913 21.2807 22.9023 21.2815C23.2133 21.2824 23.465 21.5464 23.4641 21.8708C23.4632 22.1952 23.2099 22.4578 22.899 22.4569C22.588 22.456 22.3362 22.1919 22.3372 21.8676ZM23.8772 21.872C23.8781 21.5476 24.1313 21.285 24.4423 21.2859C24.7533 21.2868 25.005 21.5508 25.0041 21.8752C25.0032 22.1995 24.7499 22.4622 24.439 22.4613C24.128 22.4604 23.8762 22.1963 23.8772 21.872ZM25.4171 21.8764C25.4181 21.552 25.6713 21.2894 25.9823 21.2903C26.2933 21.2912 26.545 21.5552 26.544 21.8796C26.5431 22.2039 26.2899 22.4666 25.9789 22.4657C25.668 22.4648 25.4162 22.2007 25.4171 21.8764ZM26.9571 21.8808C26.9581 21.5564 27.2112 21.2938 27.5222 21.2947C27.8332 21.2956 28.0849 21.5596 28.084 21.884C28.0831 22.2083 27.8298 22.471 27.5189 22.4701C27.2079 22.4692 26.9562 22.2051 26.9571 21.8808ZM28.4971 21.8851C28.498 21.5608 28.7512 21.2982 29.0622 21.2991C29.3732 21.3 29.6249 21.564 29.624 21.8884C29.6231 22.2127 29.3698 22.4753 29.0589 22.4745C28.7479 22.4736 28.4961 22.2095 28.4971 21.8851ZM30.037 21.8895C30.038 21.5652 30.2912 21.3026 30.6022 21.3035C30.9132 21.3044 31.1649 21.5684 31.164 21.8927C31.1631 22.2171 30.9098 22.4797 30.5988 22.4789C30.2879 22.478 30.0361 22.2139 30.037 21.8895ZM24.7391 12.5717C24.74 12.2473 24.9932 11.9847 25.3042 11.9856C25.6151 11.9865 25.8669 12.2505 25.8659 12.5749C25.865 12.8993 25.6118 13.1619 25.3009 13.161C24.9898 13.1601 24.7381 12.8961 24.7391 12.5717ZM26.279 12.5761C26.2799 12.2517 26.5331 11.9891 26.8441 11.99C27.1551 11.9909 27.4069 12.2549 27.4059 12.5793C27.405 12.9037 27.1518 13.1663 26.8408 13.1654C26.5298 13.1645 26.2781 12.9005 26.279 12.5761ZM27.819 12.5805C27.8199 12.2561 28.0731 11.9935 28.3841 11.9944C28.6951 11.9953 28.9468 12.2593 28.9459 12.5837C28.945 12.9081 28.6917 13.1707 28.3808 13.1698C28.0698 13.1689 27.818 12.9049 27.819 12.5805ZM23.1914 15.2444C23.1924 14.92 23.4456 14.6574 23.7566 14.6582C24.0676 14.6591 24.3192 14.9232 24.3183 15.2476C24.3174 15.5719 24.0642 15.8345 23.7532 15.8336C23.4422 15.8327 23.1905 15.5687 23.1914 15.2444ZM24.7314 15.2487C24.7323 14.9244 24.9855 14.6618 25.2966 14.6626C25.6075 14.6635 25.8592 14.9276 25.8583 15.252C25.8574 15.5763 25.6041 15.8389 25.2932 15.838C24.9822 15.8371 24.7305 15.5731 24.7314 15.2487ZM26.2713 15.2531C26.2723 14.9288 26.5255 14.6661 26.8365 14.667C27.1475 14.6679 27.3992 14.932 27.3983 15.2563C27.3974 15.5807 27.1441 15.8433 26.8331 15.8424C26.5222 15.8415 26.2704 15.5775 26.2713 15.2531ZM27.8113 15.2575C27.8123 14.9332 28.0655 14.6705 28.3765 14.6714C28.6875 14.6723 28.9392 14.9364 28.9383 15.2607C28.9374 15.5851 28.6841 15.8477 28.3731 15.8468C28.0621 15.8459 27.8104 15.5819 27.8113 15.2575ZM29.3513 15.2619C29.3522 14.9376 29.6055 14.6749 29.9165 14.6758C30.2275 14.6767 30.4791 14.9408 30.4782 15.2651C30.4773 15.5895 30.2241 15.8521 29.9131 15.8512C29.6021 15.8503 29.3504 15.5863 29.3513 15.2619ZM23.1838 17.9214C23.1847 17.597 23.438 17.3344 23.749 17.3353C24.0599 17.3361 24.3116 17.6002 24.3107 17.9246C24.3098 18.2489 24.0566 18.5116 23.7456 18.5107C23.4346 18.5098 23.1829 18.2457 23.1838 17.9214ZM24.7238 17.9258C24.7247 17.6014 24.9779 17.3388 25.2889 17.3397C25.5999 17.3405 25.8516 17.6046 25.8507 17.929C25.8497 18.2533 25.5965 18.516 25.2856 18.5151C24.9745 18.5142 24.7229 18.2501 24.7238 17.9258ZM26.2637 17.9301C26.2646 17.6058 26.5179 17.3432 26.8289 17.344C27.1398 17.3449 27.3916 17.609 27.3907 17.9334C27.3897 18.2577 27.1365 18.5204 26.8255 18.5195C26.5145 18.5186 26.2628 18.2545 26.2637 17.9301ZM27.8037 17.9345C27.8046 17.6102 28.0579 17.3475 28.3689 17.3484C28.6798 17.3493 28.9316 17.6134 28.9307 17.9378C28.9297 18.2621 28.6765 18.5247 28.3655 18.5239C28.0545 18.523 27.8028 18.2589 27.8037 17.9345ZM29.3437 17.9389C29.3446 17.6146 29.5979 17.3519 29.9088 17.3528C30.2198 17.3537 30.4715 17.6178 30.4706 17.9421C30.4696 18.2665 30.2165 18.5291 29.9055 18.5282C29.5945 18.5274 29.3428 18.2633 29.3437 17.9389ZM23.1762 20.5984C23.1771 20.274 23.4303 20.0115 23.7413 20.0123C24.0523 20.0132 24.304 20.2772 24.3031 20.6016C24.3021 20.926 24.0489 21.1886 23.738 21.1877C23.427 21.1868 23.1752 20.9227 23.1762 20.5984ZM24.7162 20.6028C24.7171 20.2784 24.9703 20.0158 25.2813 20.0167C25.5922 20.0176 25.844 20.2816 25.843 20.606C25.8421 20.9303 25.5889 21.193 25.278 21.1921C24.9669 21.1912 24.7152 20.9271 24.7162 20.6028ZM26.2561 20.6072C26.257 20.2828 26.5102 20.0202 26.8212 20.0211C27.1322 20.022 27.384 20.286 27.383 20.6104C27.3821 20.9347 27.1289 21.1974 26.8179 21.1965C26.5069 21.1956 26.2552 20.9315 26.2561 20.6072ZM27.7961 20.6116C27.797 20.2872 28.0502 20.0246 28.3612 20.0255C28.6722 20.0264 28.9239 20.2904 28.923 20.6148C28.9221 20.9391 28.6688 21.2018 28.3579 21.2009C28.0469 21.2 27.7951 20.9359 27.7961 20.6116ZM29.3361 20.6159C29.337 20.2916 29.5902 20.029 29.9012 20.0299C30.2122 20.0308 30.4639 20.2948 30.4629 20.6192C30.462 20.9435 30.2088 21.2061 29.8979 21.2053C29.5869 21.2044 29.3351 20.9403 29.3361 20.6159ZM23.1685 23.2754C23.1695 22.951 23.4227 22.6885 23.7337 22.6894C24.0447 22.6902 24.2963 22.9542 24.2954 23.2786C24.2945 23.603 24.0413 23.8656 23.7303 23.8647C23.4193 23.8638 23.1676 23.5998 23.1685 23.2754ZM24.7085 23.2798C24.7094 22.9554 24.9626 22.6929 25.2737 22.6937C25.5846 22.6946 25.8363 22.9586 25.8354 23.283C25.8345 23.6074 25.5812 23.87 25.2703 23.8691C24.9593 23.8682 24.7076 23.6042 24.7085 23.2798ZM26.2484 23.2842C26.2494 22.9598 26.5026 22.6972 26.8136 22.6981C27.1246 22.699 27.3763 22.963 27.3754 23.2874C27.3745 23.6118 27.1212 23.8744 26.8102 23.8735C26.4993 23.8726 26.2475 23.6086 26.2484 23.2842ZM27.7884 23.2886C27.7894 22.9642 28.0426 22.7016 28.3536 22.7025C28.6646 22.7034 28.9163 22.9674 28.9154 23.2918C28.9145 23.6162 28.6612 23.8788 28.3502 23.8779C28.0392 23.877 27.7875 23.613 27.7884 23.2886ZM29.3284 23.293C29.3293 22.9686 29.5826 22.706 29.8936 22.7069C30.2046 22.7078 30.4562 22.9718 30.4553 23.2962C30.4544 23.6206 30.2012 23.8832 29.8902 23.8823C29.5792 23.8814 29.3275 23.6174 29.3284 23.293ZM16.1125 26.5627C16.0966 32.1504 20.086 36.7969 25.244 37.5889L25.23 42.5171L28.2842 42.5259L28.2983 37.5976C33.4607 36.8351 37.4765 32.2113 37.4925 26.6237L34.4382 26.615C34.4257 31.0016 30.9856 34.5693 26.7798 34.5574C22.5662 34.5366 19.1627 30.9663 19.1668 26.5714L16.1125 26.5627ZM22.1495 9.22134C23.4509 8.17011 25.084 7.54227 26.8568 7.54365C31.0626 7.55565 34.4823 11.143 34.4698 15.5296L37.5241 15.5383C37.54 9.95064 33.5506 5.30409 28.3926 4.51202L25.3384 4.50331C23.7223 4.74208 22.2185 5.35918 20.918 6.26949C21.0726 5.80584 22.3081 8.7714 22.1495 9.22134ZM34.4636 17.6804L37.5179 17.6891L37.5111 20.0984L34.4568 20.0897L34.4636 17.6804ZM34.4514 21.9636L37.5057 21.9723L37.4988 24.3816L34.4446 24.3729L34.4514 21.9636ZM15.9699 22.574L15.965 24.3202L19.0192 24.3289L19.0261 21.9196L17.0843 21.9141C16.7154 22.223 16.3491 22.4483 15.9699 22.574Z" fill="#ffffff"/>
</svg>
